<?xml version="1.0" encoding="UTF-8" standalone="no"?>
<!DOCTYPE svg PUBLIC "-//W3C//DTD SVG 1.1//EN"
 "http://www.w3.org/Graphics/SVG/1.1/DTD/svg11.dtd">
<!-- Generated by graphviz version 2.36.0 (20140111.2315)
 -->
<!-- Title: controllers_diagram Pages: 1 -->
<svg width="984pt" height="817pt"
 viewBox="0.00 0.00 983.60 817.00" xmlns="http://www.w3.org/2000/svg" xmlns:xlink="http://www.w3.org/1999/xlink">
<g id="graph0" class="graph" transform="scale(1 1) rotate(0) translate(4 813)">
<title>controllers_diagram</title>
<polygon fill="white" stroke="none" points="-4,4 -4,-813 979.601,-813 979.601,4 -4,4"/>
<!-- _diagram_info -->
<g id="node1" class="node"><title>_diagram_info</title>
<text text-anchor="start" x="628" y="-709.6" font-family="Times,serif" font-size="13.00">Controllers diagram</text>
<text text-anchor="start" x="628" y="-696.6" font-family="Times,serif" font-size="13.00">Date: Jun 16 2014 &#45; 22:15</text>
<text text-anchor="start" x="628" y="-683.6" font-family="Times,serif" font-size="13.00">Migration version: 20140607163055</text>
<text text-anchor="start" x="628" y="-670.6" font-family="Times,serif" font-size="13.00">Generated by RailRoady 1.1.1</text>
<text text-anchor="start" x="628" y="-657.6" font-family="Times,serif" font-size="13.00">http://railroady.prestonlee.com</text>
</g>
<!-- Api::ApiController -->
<g id="node2" class="node"><title>Api::ApiController</title>
<path fill="none" stroke="black" d="M601,-279.5C601,-279.5 730.628,-279.5 730.628,-279.5 736.628,-279.5 742.628,-285.5 742.628,-291.5 742.628,-291.5 742.628,-427.5 742.628,-427.5 742.628,-433.5 736.628,-439.5 730.628,-439.5 730.628,-439.5 601,-439.5 601,-439.5 595,-439.5 589,-433.5 589,-427.5 589,-427.5 589,-291.5 589,-291.5 589,-285.5 595,-279.5 601,-279.5"/>
<text text-anchor="middle" x="665.814" y="-424.3" font-family="Times,serif" font-size="14.00">Api::ApiController</text>
<polyline fill="none" stroke="black" points="589,-417.5 742.628,-417.5 "/>
<text text-anchor="start" x="597" y="-402.3" font-family="Times,serif" font-size="14.00">current_user</text>
<text text-anchor="start" x="597" y="-388.3" font-family="Times,serif" font-size="14.00">invalid_record!</text>
<polyline fill="none" stroke="black" points="589,-381.5 742.628,-381.5 "/>
<polyline fill="none" stroke="black" points="589,-357.5 742.628,-357.5 "/>
<text text-anchor="start" x="597" y="-342.3" font-family="Times,serif" font-size="14.00">_layout</text>
<text text-anchor="start" x="597" y="-328.3" font-family="Times,serif" font-size="14.00">error_during_processing</text>
<text text-anchor="start" x="597" y="-314.3" font-family="Times,serif" font-size="14.00">forbidden_operation</text>
<text text-anchor="start" x="597" y="-300.3" font-family="Times,serif" font-size="14.00">not_found</text>
<text text-anchor="start" x="597" y="-286.3" font-family="Times,serif" font-size="14.00">parameter_missing</text>
</g>
<!-- Api::AssetsController -->
<g id="node3" class="node"><title>Api::AssetsController</title>
<path fill="none" stroke="black" d="M601,-0.5C601,-0.5 715.883,-0.5 715.883,-0.5 721.883,-0.5 727.883,-6.5 727.883,-12.5 727.883,-12.5 727.883,-204.5 727.883,-204.5 727.883,-210.5 721.883,-216.5 715.883,-216.5 715.883,-216.5 601,-216.5 601,-216.5 595,-216.5 589,-210.5 589,-204.5 589,-204.5 589,-12.5 589,-12.5 589,-6.5 595,-0.5 601,-0.5"/>
<text text-anchor="middle" x="658.441" y="-201.3" font-family="Times,serif" font-size="14.00">Api::AssetsController</text>
<polyline fill="none" stroke="black" points="589,-194.5 727.883,-194.5 "/>
<text text-anchor="start" x="597" y="-179.3" font-family="Times,serif" font-size="14.00">content</text>
<text text-anchor="start" x="597" y="-165.3" font-family="Times,serif" font-size="14.00">copy</text>
<text text-anchor="start" x="597" y="-151.3" font-family="Times,serif" font-size="14.00">create</text>
<text text-anchor="start" x="597" y="-137.3" font-family="Times,serif" font-size="14.00">destroy</text>
<text text-anchor="start" x="597" y="-123.3" font-family="Times,serif" font-size="14.00">index</text>
<text text-anchor="start" x="597" y="-109.3" font-family="Times,serif" font-size="14.00">show</text>
<text text-anchor="start" x="597" y="-95.3" font-family="Times,serif" font-size="14.00">update</text>
<polyline fill="none" stroke="black" points="589,-88.5 727.883,-88.5 "/>
<polyline fill="none" stroke="black" points="589,-64.5 727.883,-64.5 "/>
<text text-anchor="start" x="597" y="-49.3" font-family="Times,serif" font-size="14.00">_layout</text>
<text text-anchor="start" x="597" y="-35.3" font-family="Times,serif" font-size="14.00">asset_params</text>
<text text-anchor="start" x="597" y="-21.3" font-family="Times,serif" font-size="14.00">folder_id</text>
<text text-anchor="start" x="597" y="-7.3" font-family="Times,serif" font-size="14.00">load_asset</text>
</g>
<!-- Api::FoldersController -->
<g id="node4" class="node"><title>Api::FoldersController</title>
<path fill="none" stroke="black" d="M384,-620.5C384,-620.5 504.324,-620.5 504.324,-620.5 510.324,-620.5 516.324,-626.5 516.324,-632.5 516.324,-632.5 516.324,-796.5 516.324,-796.5 516.324,-802.5 510.324,-808.5 504.324,-808.5 504.324,-808.5 384,-808.5 384,-808.5 378,-808.5 372,-802.5 372,-796.5 372,-796.5 372,-632.5 372,-632.5 372,-626.5 378,-620.5 384,-620.5"/>
<text text-anchor="middle" x="444.162" y="-793.3" font-family="Times,serif" font-size="14.00">Api::FoldersController</text>
<polyline fill="none" stroke="black" points="372,-786.5 516.324,-786.5 "/>
<text text-anchor="start" x="380" y="-771.3" font-family="Times,serif" font-size="14.00">copy</text>
<text text-anchor="start" x="380" y="-757.3" font-family="Times,serif" font-size="14.00">create</text>
<text text-anchor="start" x="380" y="-743.3" font-family="Times,serif" font-size="14.00">destroy</text>
<text text-anchor="start" x="380" y="-729.3" font-family="Times,serif" font-size="14.00">index</text>
<text text-anchor="start" x="380" y="-715.3" font-family="Times,serif" font-size="14.00">show</text>
<text text-anchor="start" x="380" y="-701.3" font-family="Times,serif" font-size="14.00">update</text>
<polyline fill="none" stroke="black" points="372,-694.5 516.324,-694.5 "/>
<polyline fill="none" stroke="black" points="372,-670.5 516.324,-670.5 "/>
<text text-anchor="start" x="380" y="-655.3" font-family="Times,serif" font-size="14.00">_layout</text>
<text text-anchor="start" x="380" y="-641.3" font-family="Times,serif" font-size="14.00">folder_params</text>
<text text-anchor="start" x="380" y="-627.3" font-family="Times,serif" font-size="14.00">load_folder</text>
</g>
<!-- ApplicationController -->
<g id="node5" class="node"><title>ApplicationController</title>
<path fill="none" stroke="black" d="M148.212,-245.845C148.212,-245.845 322.143,-245.845 322.143,-245.845 328.143,-245.845 334.143,-251.845 334.143,-257.845 334.143,-257.845 334.143,-393.845 334.143,-393.845 334.143,-399.845 328.143,-405.845 322.143,-405.845 322.143,-405.845 148.212,-405.845 148.212,-405.845 142.212,-405.845 136.212,-399.845 136.212,-393.845 136.212,-393.845 136.212,-257.845 136.212,-257.845 136.212,-251.845 142.212,-245.845 148.212,-245.845"/>
<text text-anchor="middle" x="235.177" y="-390.645" font-family="Times,serif" font-size="14.00">ApplicationController</text>
<polyline fill="none" stroke="black" points="136.212,-383.845 334.143,-383.845 "/>
<polyline fill="none" stroke="black" points="136.212,-359.845 334.143,-359.845 "/>
<text text-anchor="start" x="144.212" y="-344.645" font-family="Times,serif" font-size="14.00">after_sign_in_path_for</text>
<text text-anchor="start" x="144.212" y="-330.645" font-family="Times,serif" font-size="14.00">authenticate_admin!</text>
<text text-anchor="start" x="144.212" y="-316.645" font-family="Times,serif" font-size="14.00">configure_permitted_parameters</text>
<text text-anchor="start" x="144.212" y="-302.645" font-family="Times,serif" font-size="14.00">current_admin</text>
<text text-anchor="start" x="144.212" y="-288.645" font-family="Times,serif" font-size="14.00">page_layout</text>
<text text-anchor="start" x="144.212" y="-274.645" font-family="Times,serif" font-size="14.00">set_current_user_to_js</text>
<polyline fill="none" stroke="black" points="136.212,-267.845 334.143,-267.845 "/>
<text text-anchor="start" x="144.212" y="-252.645" font-family="Times,serif" font-size="14.00">_layout</text>
</g>
<!-- AssetsController -->
<g id="node6" class="node"><title>AssetsController</title>
<path fill="none" stroke="black" d="M408.561,-225.799C408.561,-225.799 507.072,-225.799 507.072,-225.799 513.072,-225.799 519.072,-231.799 519.072,-237.799 519.072,-237.799 519.072,-415.799 519.072,-415.799 519.072,-421.799 513.072,-427.799 507.072,-427.799 507.072,-427.799 408.561,-427.799 408.561,-427.799 402.561,-427.799 396.561,-421.799 396.561,-415.799 396.561,-415.799 396.561,-237.799 396.561,-237.799 396.561,-231.799 402.561,-225.799 408.561,-225.799"/>
<text text-anchor="middle" x="457.816" y="-412.599" font-family="Times,serif" font-size="14.00">AssetsController</text>
<polyline fill="none" stroke="black" points="396.561,-405.799 519.072,-405.799 "/>
<text text-anchor="start" x="404.561" y="-390.599" font-family="Times,serif" font-size="14.00">create</text>
<text text-anchor="start" x="404.561" y="-376.599" font-family="Times,serif" font-size="14.00">destroy</text>
<text text-anchor="start" x="404.561" y="-362.599" font-family="Times,serif" font-size="14.00">download</text>
<text text-anchor="start" x="404.561" y="-348.599" font-family="Times,serif" font-size="14.00">new</text>
<text text-anchor="start" x="404.561" y="-334.599" font-family="Times,serif" font-size="14.00">shared</text>
<text text-anchor="start" x="404.561" y="-320.599" font-family="Times,serif" font-size="14.00">show</text>
<polyline fill="none" stroke="black" points="396.561,-313.799 519.072,-313.799 "/>
<polyline fill="none" stroke="black" points="396.561,-289.799 519.072,-289.799 "/>
<text text-anchor="start" x="404.561" y="-274.599" font-family="Times,serif" font-size="14.00">_layout</text>
<text text-anchor="start" x="404.561" y="-260.599" font-family="Times,serif" font-size="14.00">asset_params</text>
<text text-anchor="start" x="404.561" y="-246.599" font-family="Times,serif" font-size="14.00">load_asset</text>
<text text-anchor="start" x="404.561" y="-232.599" font-family="Times,serif" font-size="14.00">load_parent_folder</text>
</g>
<!-- ApplicationController&#45;&gt;AssetsController -->
<g id="edge1" class="edge"><title>ApplicationController&#45;&gt;AssetsController</title>
<path fill="none" stroke="black" d="M334.451,-326.27C355.555,-326.361 377.244,-326.454 396.435,-326.536"/>
</g>
<!-- ChartsController -->
<g id="node7" class="node"><title>ChartsController</title>
<path fill="none" stroke="black" d="M205.221,-62.9598C205.221,-62.9598 291.317,-62.9598 291.317,-62.9598 297.317,-62.9598 303.317,-68.9598 303.317,-74.9598 303.317,-74.9598 303.317,-140.96 303.317,-140.96 303.317,-146.96 297.317,-152.96 291.317,-152.96 291.317,-152.96 205.221,-152.96 205.221,-152.96 199.221,-152.96 193.221,-146.96 193.221,-140.96 193.221,-140.96 193.221,-74.9598 193.221,-74.9598 193.221,-68.9598 199.221,-62.9598 205.221,-62.9598"/>
<text text-anchor="middle" x="248.269" y="-137.76" font-family="Times,serif" font-size="14.00">ChartsController</text>
<polyline fill="none" stroke="black" points="193.221,-130.96 303.317,-130.96 "/>
<text text-anchor="start" x="201.221" y="-115.76" font-family="Times,serif" font-size="14.00">index</text>
<polyline fill="none" stroke="black" points="193.221,-108.96 303.317,-108.96 "/>
<polyline fill="none" stroke="black" points="193.221,-84.9598 303.317,-84.9598 "/>
<text text-anchor="start" x="201.221" y="-69.7598" font-family="Times,serif" font-size="14.00">_layout</text>
</g>
<!-- ApplicationController&#45;&gt;ChartsController -->
<g id="edge2" class="edge"><title>ApplicationController&#45;&gt;ChartsController</title>
<path fill="none" stroke="black" d="M239.996,-245.641C241.87,-214.456 243.947,-179.889 245.551,-153.191"/>
</g>
<!-- FoldersController -->
<g id="node8" class="node"><title>FoldersController</title>
<path fill="none" stroke="black" d="M12,-408.12C12,-408.12 103.545,-408.12 103.545,-408.12 109.545,-408.12 115.545,-414.12 115.545,-420.12 115.545,-420.12 115.545,-556.12 115.545,-556.12 115.545,-562.12 109.545,-568.12 103.545,-568.12 103.545,-568.12 12,-568.12 12,-568.12 6,-568.12 0,-562.12 0,-556.12 0,-556.12 0,-420.12 0,-420.12 0,-414.12 6,-408.12 12,-408.12"/>
<text text-anchor="middle" x="57.7725" y="-552.92" font-family="Times,serif" font-size="14.00">FoldersController</text>
<polyline fill="none" stroke="black" points="0,-546.12 115.545,-546.12 "/>
<text text-anchor="start" x="8" y="-530.92" font-family="Times,serif" font-size="14.00">create</text>
<text text-anchor="start" x="8" y="-516.92" font-family="Times,serif" font-size="14.00">destroy</text>
<text text-anchor="start" x="8" y="-502.92" font-family="Times,serif" font-size="14.00">index</text>
<text text-anchor="start" x="8" y="-488.92" font-family="Times,serif" font-size="14.00">new</text>
<text text-anchor="start" x="8" y="-474.92" font-family="Times,serif" font-size="14.00">show</text>
<polyline fill="none" stroke="black" points="0,-468.12 115.545,-468.12 "/>
<polyline fill="none" stroke="black" points="0,-444.12 115.545,-444.12 "/>
<text text-anchor="start" x="8" y="-428.92" font-family="Times,serif" font-size="14.00">_layout</text>
<text text-anchor="start" x="8" y="-414.92" font-family="Times,serif" font-size="14.00">folder_params</text>
</g>
<!-- ApplicationController&#45;&gt;FoldersController -->
<g id="edge3" class="edge"><title>ApplicationController&#45;&gt;FoldersController</title>
<path fill="none" stroke="black" d="M147.514,-406.032C136.69,-415.933 125.845,-425.853 115.624,-435.202"/>
</g>
<!-- HomeController -->
<g id="node9" class="node"><title>HomeController</title>
<path fill="none" stroke="black" d="M421.745,-489.965C421.745,-489.965 505.503,-489.965 505.503,-489.965 511.503,-489.965 517.503,-495.965 517.503,-501.965 517.503,-501.965 517.503,-567.965 517.503,-567.965 517.503,-573.965 511.503,-579.965 505.503,-579.965 505.503,-579.965 421.745,-579.965 421.745,-579.965 415.745,-579.965 409.745,-573.965 409.745,-567.965 409.745,-567.965 409.745,-501.965 409.745,-501.965 409.745,-495.965 415.745,-489.965 421.745,-489.965"/>
<text text-anchor="middle" x="463.624" y="-564.765" font-family="Times,serif" font-size="14.00">HomeController</text>
<polyline fill="none" stroke="black" points="409.745,-557.965 517.503,-557.965 "/>
<text text-anchor="start" x="417.745" y="-542.765" font-family="Times,serif" font-size="14.00">index</text>
<polyline fill="none" stroke="black" points="409.745,-535.965 517.503,-535.965 "/>
<polyline fill="none" stroke="black" points="409.745,-511.965 517.503,-511.965 "/>
<text text-anchor="start" x="417.745" y="-496.765" font-family="Times,serif" font-size="14.00">_layout</text>
</g>
<!-- ApplicationController&#45;&gt;HomeController -->
<g id="edge4" class="edge"><title>ApplicationController&#45;&gt;HomeController</title>
<path fill="none" stroke="black" d="M322.848,-406.098C353.801,-434.433 387.508,-465.289 414.178,-489.702"/>
</g>
<!-- PaymentsController -->
<g id="node10" class="node"><title>PaymentsController</title>
<path fill="none" stroke="black" d="M199.45,-484.83C199.45,-484.83 303.437,-484.83 303.437,-484.83 309.437,-484.83 315.437,-490.83 315.437,-496.83 315.437,-496.83 315.437,-590.83 315.437,-590.83 315.437,-596.83 309.437,-602.83 303.437,-602.83 303.437,-602.83 199.45,-602.83 199.45,-602.83 193.45,-602.83 187.45,-596.83 187.45,-590.83 187.45,-590.83 187.45,-496.83 187.45,-496.83 187.45,-490.83 193.45,-484.83 199.45,-484.83"/>
<text text-anchor="middle" x="251.443" y="-587.63" font-family="Times,serif" font-size="14.00">PaymentsController</text>
<polyline fill="none" stroke="black" points="187.45,-580.83 315.437,-580.83 "/>
<text text-anchor="start" x="195.45" y="-565.63" font-family="Times,serif" font-size="14.00">create</text>
<text text-anchor="start" x="195.45" y="-551.63" font-family="Times,serif" font-size="14.00">new</text>
<text text-anchor="start" x="195.45" y="-537.63" font-family="Times,serif" font-size="14.00">recurring</text>
<polyline fill="none" stroke="black" points="187.45,-530.83 315.437,-530.83 "/>
<polyline fill="none" stroke="black" points="187.45,-506.83 315.437,-506.83 "/>
<text text-anchor="start" x="195.45" y="-491.63" font-family="Times,serif" font-size="14.00">_layout</text>
</g>
<!-- ApplicationController&#45;&gt;PaymentsController -->
<g id="edge5" class="edge"><title>ApplicationController&#45;&gt;PaymentsController</title>
<path fill="none" stroke="black" d="M241.165,-406.086C243.104,-432.065 245.217,-460.39 247.021,-484.563"/>
</g>
<!-- PlansController -->
<g id="node11" class="node"><title>PlansController</title>
<path fill="none" stroke="black" d="M16.5834,-72.9738C16.5834,-72.9738 96.4662,-72.9738 96.4662,-72.9738 102.466,-72.9738 108.466,-78.9738 108.466,-84.9738 108.466,-84.9738 108.466,-248.974 108.466,-248.974 108.466,-254.974 102.466,-260.974 96.4662,-260.974 96.4662,-260.974 16.5834,-260.974 16.5834,-260.974 10.5834,-260.974 4.58336,-254.974 4.58336,-248.974 4.58336,-248.974 4.58336,-84.9738 4.58336,-84.9738 4.58336,-78.9738 10.5834,-72.9738 16.5834,-72.9738"/>
<text text-anchor="middle" x="56.5248" y="-245.774" font-family="Times,serif" font-size="14.00">PlansController</text>
<polyline fill="none" stroke="black" points="4.58336,-238.974 108.466,-238.974 "/>
<text text-anchor="start" x="12.5834" y="-223.774" font-family="Times,serif" font-size="14.00">create</text>
<text text-anchor="start" x="12.5834" y="-209.774" font-family="Times,serif" font-size="14.00">destroy</text>
<text text-anchor="start" x="12.5834" y="-195.774" font-family="Times,serif" font-size="14.00">edit</text>
<text text-anchor="start" x="12.5834" y="-181.774" font-family="Times,serif" font-size="14.00">index</text>
<text text-anchor="start" x="12.5834" y="-167.774" font-family="Times,serif" font-size="14.00">new</text>
<text text-anchor="start" x="12.5834" y="-153.774" font-family="Times,serif" font-size="14.00">show</text>
<text text-anchor="start" x="12.5834" y="-139.774" font-family="Times,serif" font-size="14.00">update</text>
<polyline fill="none" stroke="black" points="4.58336,-132.974 108.466,-132.974 "/>
<polyline fill="none" stroke="black" points="4.58336,-108.974 108.466,-108.974 "/>
<text text-anchor="start" x="12.5834" y="-93.7738" font-family="Times,serif" font-size="14.00">_layout</text>
<text text-anchor="start" x="12.5834" y="-79.7738" font-family="Times,serif" font-size="14.00">plan_params</text>
</g>
<!-- ApplicationController&#45;&gt;PlansController -->
<g id="edge6" class="edge"><title>ApplicationController&#45;&gt;PlansController</title>
<path fill="none" stroke="black" d="M145.066,-245.711C132.579,-234.606 120.112,-223.52 108.641,-213.32"/>
</g>
<!-- ShareLinksController -->
<g id="node13" class="node"><title>ShareLinksController</title>
<path fill="none" stroke="black" d="M405.625,-31.5C405.625,-31.5 518.936,-31.5 518.936,-31.5 524.936,-31.5 530.936,-37.5 530.936,-43.5 530.936,-43.5 530.936,-193.5 530.936,-193.5 530.936,-199.5 524.936,-205.5 518.936,-205.5 518.936,-205.5 405.625,-205.5 405.625,-205.5 399.625,-205.5 393.625,-199.5 393.625,-193.5 393.625,-193.5 393.625,-43.5 393.625,-43.5 393.625,-37.5 399.625,-31.5 405.625,-31.5"/>
<text text-anchor="middle" x="462.281" y="-190.3" font-family="Times,serif" font-size="14.00">ShareLinksController</text>
<polyline fill="none" stroke="black" points="393.625,-183.5 530.936,-183.5 "/>
<text text-anchor="start" x="401.625" y="-168.3" font-family="Times,serif" font-size="14.00">create</text>
<text text-anchor="start" x="401.625" y="-154.3" font-family="Times,serif" font-size="14.00">destroy</text>
<text text-anchor="start" x="401.625" y="-140.3" font-family="Times,serif" font-size="14.00">index</text>
<text text-anchor="start" x="401.625" y="-126.3" font-family="Times,serif" font-size="14.00">new</text>
<text text-anchor="start" x="401.625" y="-112.3" font-family="Times,serif" font-size="14.00">show</text>
<polyline fill="none" stroke="black" points="393.625,-105.5 530.936,-105.5 "/>
<polyline fill="none" stroke="black" points="393.625,-81.5 530.936,-81.5 "/>
<text text-anchor="start" x="401.625" y="-66.3" font-family="Times,serif" font-size="14.00">_layout</text>
<text text-anchor="start" x="401.625" y="-52.3" font-family="Times,serif" font-size="14.00">load_share_link</text>
<text text-anchor="start" x="401.625" y="-38.3" font-family="Times,serif" font-size="14.00">share_link_params</text>
</g>
<!-- ApplicationController&#45;&gt;ShareLinksController -->
<g id="edge8" class="edge"><title>ApplicationController&#45;&gt;ShareLinksController</title>
<path fill="none" stroke="black" d="M322.981,-245.68C346.322,-224.37 371.195,-201.661 393.368,-181.417"/>
</g>
<!-- RegistrationsController -->
<g id="node12" class="node"><title>RegistrationsController</title>
<path fill="none" stroke="black" d="M570,-496.5C570,-496.5 693.428,-496.5 693.428,-496.5 699.428,-496.5 705.428,-502.5 705.428,-508.5 705.428,-508.5 705.428,-588.5 705.428,-588.5 705.428,-594.5 699.428,-600.5 693.428,-600.5 693.428,-600.5 570,-600.5 570,-600.5 564,-600.5 558,-594.5 558,-588.5 558,-588.5 558,-508.5 558,-508.5 558,-502.5 564,-496.5 570,-496.5"/>
<text text-anchor="middle" x="631.714" y="-585.3" font-family="Times,serif" font-size="14.00">RegistrationsController</text>
<polyline fill="none" stroke="black" points="558,-578.5 705.428,-578.5 "/>
<polyline fill="none" stroke="black" points="558,-554.5 705.428,-554.5 "/>
<text text-anchor="start" x="566" y="-539.3" font-family="Times,serif" font-size="14.00">_layout_from_proc</text>
<text text-anchor="start" x="566" y="-525.3" font-family="Times,serif" font-size="14.00">after_update_path_for</text>
<polyline fill="none" stroke="black" points="558,-518.5 705.428,-518.5 "/>
<text text-anchor="start" x="566" y="-503.3" font-family="Times,serif" font-size="14.00">_layout</text>
</g>
<!-- Devise::RegistrationsController -->
<g id="node14" class="node"><title>Devise::RegistrationsController</title>
<ellipse fill="none" stroke="black" cx="853.004" cy="-548.499" rx="122.695" ry="18"/>
<text text-anchor="middle" x="853.004" y="-544.299" font-family="Times,serif" font-size="14.00">Devise::RegistrationsController</text>
</g>
<!-- Devise::RegistrationsController&#45;&gt;RegistrationsController -->
<g id="edge7" class="edge"><title>Devise::RegistrationsController&#45;&gt;RegistrationsController</title>
<path fill="none" stroke="black" d="M730.386,-548.5C721.91,-548.5 713.528,-548.5 705.444,-548.5"/>
</g>
</g>
</svg>
