<?xml version="1.0" encoding="UTF-8" standalone="no"?>
<!DOCTYPE svg PUBLIC "-//W3C//DTD SVG 1.1//EN"
 "http://www.w3.org/Graphics/SVG/1.1/DTD/svg11.dtd">
<!-- Generated by graphviz version 2.36.0 (20140111.2315)
 -->
<!-- Title: models_diagram Pages: 1 -->
<svg width="507pt" height="378pt"
 viewBox="0.00 0.00 507.00 378.00" xmlns="http://www.w3.org/2000/svg" xmlns:xlink="http://www.w3.org/1999/xlink">
<g id="graph0" class="graph" transform="scale(1 1) rotate(0) translate(4 374)">
<title>models_diagram</title>
<polygon fill="white" stroke="none" points="-4,4 -4,-374 503,-374 503,4 -4,4"/>
<!-- _diagram_info -->
<g id="node1" class="node"><title>_diagram_info</title>
<text text-anchor="start" x="7.31226" y="-355.1" font-family="Times,serif" font-size="13.00">Models diagram</text>
<text text-anchor="start" x="7.31226" y="-342.1" font-family="Times,serif" font-size="13.00">Date: Jun 16 2014 &#45; 22:14</text>
<text text-anchor="start" x="7.31226" y="-329.1" font-family="Times,serif" font-size="13.00">Migration version: 20140607163055</text>
<text text-anchor="start" x="7.31226" y="-316.1" font-family="Times,serif" font-size="13.00">Generated by RailRoady 1.1.1</text>
<text text-anchor="start" x="7.31226" y="-303.1" font-family="Times,serif" font-size="13.00">http://railroady.prestonlee.com</text>
</g>
<!-- Asset -->
<g id="node2" class="node"><title>Asset</title>
<ellipse fill="none" stroke="black" cx="190" cy="-18" rx="29.1427" ry="18"/>
<text text-anchor="middle" x="190" y="-13.8" font-family="Times,serif" font-size="14.00">Asset</text>
</g>
<!-- Email -->
<g id="node3" class="node"><title>Email</title>
<ellipse fill="none" stroke="black" cx="468" cy="-18" rx="31.3408" ry="18"/>
<text text-anchor="middle" x="468" y="-13.8" font-family="Times,serif" font-size="14.00">Email</text>
</g>
<!-- Folder -->
<g id="node4" class="node"><title>Folder</title>
<ellipse fill="none" stroke="black" cx="251" cy="-92" rx="33.2941" ry="18"/>
<text text-anchor="middle" x="251" y="-87.8" font-family="Times,serif" font-size="14.00">Folder</text>
</g>
<!-- Folder&#45;&gt;Asset -->
<g id="edge4" class="edge"><title>Folder&#45;&gt;Asset</title>
<path fill="none" stroke="#ec5a76" d="M232.45,-69.105C225.297,-60.662 217.102,-50.9895 209.833,-42.4089"/>
<ellipse fill="none" stroke="#ec5a76" cx="235.178" cy="-72.3251" rx="4.00002" ry="4.00002"/>
<polygon fill="#ec5a76" stroke="#ec5a76" points="209.674,-42.2223 206.644,-31.6835 206.442,-38.4074 203.21,-34.5924 203.21,-34.5924 203.21,-34.5924 206.442,-38.4074 199.777,-37.5013 209.674,-42.2223 209.674,-42.2223"/>
</g>
<!-- Folder&#45;&gt;Folder -->
<g id="edge3" class="edge"><title>Folder&#45;&gt;Folder</title>
<path fill="none" stroke="#45800d" d="M290.144,-98.3525C297.125,-97.5255 302,-95.408 302,-92 302,-88.8821 297.919,-86.8443 291.879,-85.8867"/>
<ellipse fill="none" stroke="#45800d" cx="285.868" cy="-98.5545" rx="4" ry="4"/>
<polygon fill="#45800d" stroke="#45800d" points="291.853,-85.8852 282.156,-80.7655 286.863,-85.5709 281.873,-85.2566 281.873,-85.2566 281.873,-85.2566 286.863,-85.5709 281.59,-89.7477 291.853,-85.8852 291.853,-85.8852"/>
<text text-anchor="middle" x="324.935" y="-87.8" font-family="Times,serif" font-size="14.00">children</text>
</g>
<!-- Plan -->
<g id="node5" class="node"><title>Plan</title>
<ellipse fill="none" stroke="black" cx="232" cy="-240" rx="27" ry="18"/>
<text text-anchor="middle" x="232" y="-235.8" font-family="Times,serif" font-size="14.00">Plan</text>
</g>
<!-- User -->
<g id="node7" class="node"><title>User</title>
<ellipse fill="none" stroke="black" cx="251" cy="-166" rx="27" ry="18"/>
<text text-anchor="middle" x="251" y="-161.8" font-family="Times,serif" font-size="14.00">User</text>
</g>
<!-- Plan&#45;&gt;User -->
<g id="edge6" class="edge"><title>Plan&#45;&gt;User</title>
<path fill="none" stroke="#6359b1" d="M238.606,-213.965C240.325,-207.452 242.183,-200.41 243.925,-193.809"/>
<ellipse fill="none" stroke="#6359b1" cx="237.523" cy="-218.069" rx="4.00001" ry="4.00001"/>
<polygon fill="#6359b1" stroke="#6359b1" points="243.978,-193.61 250.881,-185.089 245.254,-188.775 246.53,-183.941 246.53,-183.941 246.53,-183.941 245.254,-188.775 242.179,-182.792 243.978,-193.61 243.978,-193.61"/>
</g>
<!-- ShareLink -->
<g id="node6" class="node"><title>ShareLink</title>
<ellipse fill="none" stroke="black" cx="412" cy="-92" rx="46.4174" ry="18"/>
<text text-anchor="middle" x="412" y="-87.8" font-family="Times,serif" font-size="14.00">ShareLink</text>
</g>
<!-- ShareLink&#45;&gt;Email -->
<g id="edge8" class="edge"><title>ShareLink&#45;&gt;Email</title>
<path fill="none" stroke="#b2a1e3" d="M429.753,-68.1743C436.031,-60.1031 443.106,-51.0069 449.448,-42.8526"/>
<ellipse fill="none" stroke="#b2a1e3" cx="427.163" cy="-71.5047" rx="4.00002" ry="4.00002"/>
<polygon fill="#b2a1e3" stroke="#b2a1e3" points="449.588,-42.672 459.28,-37.5412 452.658,-38.7252 455.728,-34.7784 455.728,-34.7784 455.728,-34.7784 452.658,-38.7252 452.176,-32.0157 449.588,-42.672 449.588,-42.672"/>
</g>
<!-- User&#45;&gt;Asset -->
<g id="edge11" class="edge"><title>User&#45;&gt;Asset</title>
<path fill="none" stroke="#4cd18f" d="M231.423,-144.018C223.355,-134.321 214.603,-122.25 209,-110 199.74,-89.7564 194.943,-64.9102 192.488,-46.2976"/>
<ellipse fill="none" stroke="#4cd18f" cx="234.242" cy="-147.294" rx="4.00002" ry="4.00002"/>
<polygon fill="#4cd18f" stroke="#4cd18f" points="192.461,-46.073 195.766,-35.6169 191.879,-41.107 191.297,-36.1411 191.297,-36.1411 191.297,-36.1411 191.879,-41.107 186.827,-36.6652 192.461,-46.073 192.461,-46.073"/>
</g>
<!-- User&#45;&gt;Folder -->
<g id="edge10" class="edge"><title>User&#45;&gt;Folder</title>
<path fill="none" stroke="#063747" d="M251,-139.792C251,-133.58 251,-126.896 251,-120.579"/>
<ellipse fill="none" stroke="#063747" cx="251" cy="-143.937" rx="4" ry="4"/>
<polygon fill="#063747" stroke="#063747" points="251,-120.441 255.5,-110.441 251,-115.441 251,-110.441 251,-110.441 251,-110.441 251,-115.441 246.5,-110.441 251,-120.441 251,-120.441"/>
</g>
<!-- User&#45;&gt;ShareLink -->
<g id="edge12" class="edge"><title>User&#45;&gt;ShareLink</title>
<path fill="none" stroke="#2df19a" d="M280.117,-151.979C306.234,-140.299 344.75,-123.075 373.423,-110.252"/>
<ellipse fill="none" stroke="#2df19a" cx="276.365" cy="-153.657" rx="4.00002" ry="4.00002"/>
<polygon fill="#2df19a" stroke="#2df19a" points="373.609,-110.169 384.575,-110.194 378.173,-108.128 382.738,-106.086 382.738,-106.086 382.738,-106.086 378.173,-108.128 380.901,-101.978 373.609,-110.169 373.609,-110.169"/>
</g>
<!-- ActiveRecord::Base -->
<g id="node8" class="node"><title>ActiveRecord::Base</title>
<ellipse fill="none" stroke="black" cx="306" cy="-333" rx="80.9821" ry="18"/>
<text text-anchor="middle" x="306" y="-328.8" font-family="Times,serif" font-size="14.00">ActiveRecord::Base</text>
</g>
<!-- ActiveRecord::Base&#45;&gt;Asset -->
<g id="edge1" class="edge"><title>ActiveRecord::Base&#45;&gt;Asset</title>
<path fill="none" stroke="black" d="M265.94,-317.188C220.311,-299.05 152,-267.474 152,-241 152,-241 152,-241 152,-91 152,-69.3748 165.573,-47.8806 176.496,-34.0851"/>
</g>
<!-- ActiveRecord::Base&#45;&gt;Email -->
<g id="edge2" class="edge"><title>ActiveRecord::Base&#45;&gt;Email</title>
<path fill="none" stroke="black" d="M377.536,-324.477C428.129,-314.728 487,-292.35 487,-241 487,-241 487,-241 487,-91 487,-71.4789 480.39,-49.9366 474.967,-35.5493"/>
</g>
<!-- ActiveRecord::Base&#45;&gt;Folder -->
<g id="edge5" class="edge"><title>ActiveRecord::Base&#45;&gt;Folder</title>
<path fill="none" stroke="black" d="M306.906,-314.913C308.095,-281.686 307.972,-206.495 287,-148 281.839,-133.605 272.217,-119.21 264.219,-108.76"/>
</g>
<!-- ActiveRecord::Base&#45;&gt;Plan -->
<g id="edge7" class="edge"><title>ActiveRecord::Base&#45;&gt;Plan</title>
<path fill="none" stroke="black" d="M292.081,-314.884C278.349,-297.996 257.554,-272.424 244.381,-256.225"/>
</g>
<!-- ActiveRecord::Base&#45;&gt;ShareLink -->
<g id="edge9" class="edge"><title>ActiveRecord::Base&#45;&gt;ShareLink</title>
<path fill="none" stroke="black" d="M313.623,-314.812C333.181,-270.714 384.964,-153.958 404.446,-110.033"/>
</g>
<!-- ActiveRecord::Base&#45;&gt;User -->
<g id="edge13" class="edge"><title>ActiveRecord::Base&#45;&gt;User</title>
<path fill="none" stroke="black" d="M300.321,-314.964C289.727,-283.181 267.074,-215.222 256.566,-183.698"/>
</g>
</g>
</svg>
