<?xml version="1.0" encoding="UTF-8" standalone="no"?>
<!DOCTYPE svg PUBLIC "-//W3C//DTD SVG 1.1//EN"
 "http://www.w3.org/Graphics/SVG/1.1/DTD/svg11.dtd">
<!-- Generated by graphviz version 2.36.0 (20140111.2315)
 -->
<!-- Title: models_diagram Pages: 1 -->
<svg width="523pt" height="1034pt"
 viewBox="0.00 0.00 523.00 1034.00" xmlns="http://www.w3.org/2000/svg" xmlns:xlink="http://www.w3.org/1999/xlink">
<g id="graph0" class="graph" transform="scale(1 1) rotate(0) translate(4 1030)">
<title>models_diagram</title>
<polygon fill="white" stroke="none" points="-4,4 -4,-1030 519,-1030 519,4 -4,4"/>
<!-- _diagram_info -->
<g id="node1" class="node"><title>_diagram_info</title>
<text text-anchor="start" x="11.3123" y="-1011.1" font-family="Times,serif" font-size="13.00">Models diagram</text>
<text text-anchor="start" x="11.3123" y="-998.1" font-family="Times,serif" font-size="13.00">Date: Jun 16 2014 &#45; 22:14</text>
<text text-anchor="start" x="11.3123" y="-985.1" font-family="Times,serif" font-size="13.00">Migration version: 20140607163055</text>
<text text-anchor="start" x="11.3123" y="-972.1" font-family="Times,serif" font-size="13.00">Generated by RailRoady 1.1.1</text>
<text text-anchor="start" x="11.3123" y="-959.1" font-family="Times,serif" font-size="13.00">http://railroady.prestonlee.com</text>
</g>
<!-- Asset -->
<g id="node2" class="node"><title>Asset</title>
<path fill="none" stroke="black" d="M11.4946,-1C11.4946,-1 120.505,-1 120.505,-1 126.505,-1 132.505,-7 132.505,-13 132.505,-13 132.505,-187 132.505,-187 132.505,-193 126.505,-199 120.505,-199 120.505,-199 11.4946,-199 11.4946,-199 5.49463,-199 -0.505371,-193 -0.505371,-187 -0.505371,-187 -0.505371,-13 -0.505371,-13 -0.505371,-7 5.49463,-1 11.4946,-1"/>
<text text-anchor="middle" x="66" y="-183.8" font-family="Times,serif" font-size="14.00">Asset</text>
<polyline fill="none" stroke="black" points="-0.505371,-177 132.505,-177 "/>
<text text-anchor="start" x="7.49463" y="-161.8" font-family="Times,serif" font-size="14.00">id :integer</text>
<text text-anchor="start" x="7.49463" y="-147.8" font-family="Times,serif" font-size="14.00">name :string</text>
<text text-anchor="start" x="7.49463" y="-133.8" font-family="Times,serif" font-size="14.00">folder_id :integer</text>
<text text-anchor="start" x="7.49463" y="-119.8" font-family="Times,serif" font-size="14.00">user_id :integer</text>
<text text-anchor="start" x="7.49463" y="-105.8" font-family="Times,serif" font-size="14.00">asset :string</text>
<text text-anchor="start" x="7.49463" y="-91.8" font-family="Times,serif" font-size="14.00">key :string</text>
<text text-anchor="start" x="7.49463" y="-77.8" font-family="Times,serif" font-size="14.00">size :float</text>
<text text-anchor="start" x="7.49463" y="-63.8" font-family="Times,serif" font-size="14.00">content_type :string</text>
<text text-anchor="start" x="7.49463" y="-49.8" font-family="Times,serif" font-size="14.00">etag :string</text>
<text text-anchor="start" x="7.49463" y="-35.8" font-family="Times,serif" font-size="14.00">processed :boolean</text>
<text text-anchor="start" x="7.49463" y="-21.8" font-family="Times,serif" font-size="14.00">created_at :datetime</text>
<text text-anchor="start" x="7.49463" y="-7.8" font-family="Times,serif" font-size="14.00">updated_at :datetime</text>
</g>
<!-- Email -->
<g id="node3" class="node"><title>Email</title>
<path fill="none" stroke="black" d="M388.767,-50C388.767,-50 503.233,-50 503.233,-50 509.233,-50 515.233,-56 515.233,-62 515.233,-62 515.233,-138 515.233,-138 515.233,-144 509.233,-150 503.233,-150 503.233,-150 388.767,-150 388.767,-150 382.767,-150 376.767,-144 376.767,-138 376.767,-138 376.767,-62 376.767,-62 376.767,-56 382.767,-50 388.767,-50"/>
<text text-anchor="middle" x="446" y="-134.8" font-family="Times,serif" font-size="14.00">Email</text>
<polyline fill="none" stroke="black" points="376.767,-128 515.233,-128 "/>
<text text-anchor="start" x="384.767" y="-112.8" font-family="Times,serif" font-size="14.00">id :integer</text>
<text text-anchor="start" x="384.767" y="-98.8" font-family="Times,serif" font-size="14.00">body :string</text>
<text text-anchor="start" x="384.767" y="-84.8" font-family="Times,serif" font-size="14.00">share_link_id :integer</text>
<text text-anchor="start" x="384.767" y="-70.8" font-family="Times,serif" font-size="14.00">created_at :datetime</text>
<text text-anchor="start" x="384.767" y="-56.8" font-family="Times,serif" font-size="14.00">updated_at :datetime</text>
</g>
<!-- Folder -->
<g id="node4" class="node"><title>Folder</title>
<path fill="none" stroke="black" d="M106.495,-239C106.495,-239 215.505,-239 215.505,-239 221.505,-239 227.505,-245 227.505,-251 227.505,-251 227.505,-383 227.505,-383 227.505,-389 221.505,-395 215.505,-395 215.505,-395 106.495,-395 106.495,-395 100.495,-395 94.4946,-389 94.4946,-383 94.4946,-383 94.4946,-251 94.4946,-251 94.4946,-245 100.495,-239 106.495,-239"/>
<text text-anchor="middle" x="161" y="-379.8" font-family="Times,serif" font-size="14.00">Folder</text>
<polyline fill="none" stroke="black" points="94.4946,-373 227.505,-373 "/>
<text text-anchor="start" x="102.495" y="-357.8" font-family="Times,serif" font-size="14.00">id :integer</text>
<text text-anchor="start" x="102.495" y="-343.8" font-family="Times,serif" font-size="14.00">name :string</text>
<text text-anchor="start" x="102.495" y="-329.8" font-family="Times,serif" font-size="14.00">user_id :integer</text>
<text text-anchor="start" x="102.495" y="-315.8" font-family="Times,serif" font-size="14.00">parent_id :integer</text>
<text text-anchor="start" x="102.495" y="-301.8" font-family="Times,serif" font-size="14.00">lft :integer</text>
<text text-anchor="start" x="102.495" y="-287.8" font-family="Times,serif" font-size="14.00">rgt :integer</text>
<text text-anchor="start" x="102.495" y="-273.8" font-family="Times,serif" font-size="14.00">depth :integer</text>
<text text-anchor="start" x="102.495" y="-259.8" font-family="Times,serif" font-size="14.00">created_at :datetime</text>
<text text-anchor="start" x="102.495" y="-245.8" font-family="Times,serif" font-size="14.00">updated_at :datetime</text>
</g>
<!-- Folder&#45;&gt;Asset -->
<g id="edge4" class="edge"><title>Folder&#45;&gt;Asset</title>
<path fill="none" stroke="#603a7b" d="M123.604,-231.366C120.29,-223.866 116.907,-216.21 113.524,-208.554"/>
<ellipse fill="none" stroke="#603a7b" cx="125.354" cy="-235.329" rx="4.00002" ry="4.00002"/>
<polygon fill="#603a7b" stroke="#603a7b" points="113.444,-208.373 113.518,-197.407 111.423,-203.799 109.402,-199.226 109.402,-199.226 109.402,-199.226 111.423,-203.799 105.286,-201.044 113.444,-208.373 113.444,-208.373"/>
</g>
<!-- Folder&#45;&gt;Folder -->
<g id="edge3" class="edge"><title>Folder&#45;&gt;Folder</title>
<path fill="none" stroke="#f9be36" d="M235.434,-330.981C241.345,-327.92 245,-323.26 245,-317 245,-311.285 241.953,-306.903 236.924,-303.854"/>
<ellipse fill="none" stroke="#f9be36" cx="231.306" cy="-332.477" rx="4.00001" ry="4.00001"/>
<polygon fill="#f9be36" stroke="#f9be36" points="236.849,-303.825 229.194,-295.973 232.197,-301.992 227.545,-300.16 227.545,-300.16 227.545,-300.16 232.197,-301.992 225.896,-304.347 236.849,-303.825 236.849,-303.825"/>
<text text-anchor="middle" x="267.935" y="-312.8" font-family="Times,serif" font-size="14.00">children</text>
</g>
<!-- Plan -->
<g id="node5" class="node"><title>Plan</title>
<path fill="none" stroke="black" d="M68.9395,-757C68.9395,-757 251.061,-757 251.061,-757 257.061,-757 263.061,-763 263.061,-769 263.061,-769 263.061,-901 263.061,-901 263.061,-907 257.061,-913 251.061,-913 251.061,-913 68.9395,-913 68.9395,-913 62.9395,-913 56.9395,-907 56.9395,-901 56.9395,-901 56.9395,-769 56.9395,-769 56.9395,-763 62.9395,-757 68.9395,-757"/>
<text text-anchor="middle" x="160" y="-897.8" font-family="Times,serif" font-size="14.00">Plan</text>
<polyline fill="none" stroke="black" points="56.9395,-891 263.061,-891 "/>
<text text-anchor="start" x="64.9395" y="-875.8" font-family="Times,serif" font-size="14.00">id :integer</text>
<text text-anchor="start" x="64.9395" y="-861.8" font-family="Times,serif" font-size="14.00">name :string</text>
<text text-anchor="start" x="64.9395" y="-847.8" font-family="Times,serif" font-size="14.00">price :float</text>
<text text-anchor="start" x="64.9395" y="-833.8" font-family="Times,serif" font-size="14.00">max_storage_space :integer</text>
<text text-anchor="start" x="64.9395" y="-819.8" font-family="Times,serif" font-size="14.00">max_bandwidth_up :integer</text>
<text text-anchor="start" x="64.9395" y="-805.8" font-family="Times,serif" font-size="14.00">max_bandwidth_down :integer</text>
<text text-anchor="start" x="64.9395" y="-791.8" font-family="Times,serif" font-size="14.00">daily_shared_links_quota :integer</text>
<text text-anchor="start" x="64.9395" y="-777.8" font-family="Times,serif" font-size="14.00">created_at :datetime</text>
<text text-anchor="start" x="64.9395" y="-763.8" font-family="Times,serif" font-size="14.00">updated_at :datetime</text>
</g>
<!-- User -->
<g id="node7" class="node"><title>User</title>
<path fill="none" stroke="black" d="M70.7222,-435C70.7222,-435 251.278,-435 251.278,-435 257.278,-435 263.278,-441 263.278,-447 263.278,-447 263.278,-705 263.278,-705 263.278,-711 257.278,-717 251.278,-717 251.278,-717 70.7222,-717 70.7222,-717 64.7222,-717 58.7222,-711 58.7222,-705 58.7222,-705 58.7222,-447 58.7222,-447 58.7222,-441 64.7222,-435 70.7222,-435"/>
<text text-anchor="middle" x="161" y="-701.8" font-family="Times,serif" font-size="14.00">User</text>
<polyline fill="none" stroke="black" points="58.7222,-695 263.278,-695 "/>
<text text-anchor="start" x="66.7222" y="-679.8" font-family="Times,serif" font-size="14.00">id :integer</text>
<text text-anchor="start" x="66.7222" y="-665.8" font-family="Times,serif" font-size="14.00">email :string</text>
<text text-anchor="start" x="66.7222" y="-651.8" font-family="Times,serif" font-size="14.00">encrypted_password :string</text>
<text text-anchor="start" x="66.7222" y="-637.8" font-family="Times,serif" font-size="14.00">reset_password_token :string</text>
<text text-anchor="start" x="66.7222" y="-623.8" font-family="Times,serif" font-size="14.00">reset_password_sent_at :datetime</text>
<text text-anchor="start" x="66.7222" y="-609.8" font-family="Times,serif" font-size="14.00">remember_created_at :datetime</text>
<text text-anchor="start" x="66.7222" y="-595.8" font-family="Times,serif" font-size="14.00">sign_in_count :integer</text>
<text text-anchor="start" x="66.7222" y="-581.8" font-family="Times,serif" font-size="14.00">current_sign_in_at :datetime</text>
<text text-anchor="start" x="66.7222" y="-567.8" font-family="Times,serif" font-size="14.00">last_sign_in_at :datetime</text>
<text text-anchor="start" x="66.7222" y="-553.8" font-family="Times,serif" font-size="14.00">current_sign_in_ip :string</text>
<text text-anchor="start" x="66.7222" y="-539.8" font-family="Times,serif" font-size="14.00">last_sign_in_ip :string</text>
<text text-anchor="start" x="66.7222" y="-525.8" font-family="Times,serif" font-size="14.00">created_at :datetime</text>
<text text-anchor="start" x="66.7222" y="-511.8" font-family="Times,serif" font-size="14.00">updated_at :datetime</text>
<text text-anchor="start" x="66.7222" y="-497.8" font-family="Times,serif" font-size="14.00">username :string</text>
<text text-anchor="start" x="66.7222" y="-483.8" font-family="Times,serif" font-size="14.00">plan_id :integer</text>
<text text-anchor="start" x="66.7222" y="-469.8" font-family="Times,serif" font-size="14.00">admin :boolean</text>
<text text-anchor="start" x="66.7222" y="-455.8" font-family="Times,serif" font-size="14.00">avatar :string</text>
<text text-anchor="start" x="66.7222" y="-441.8" font-family="Times,serif" font-size="14.00">country_code :string</text>
</g>
<!-- Plan&#45;&gt;User -->
<g id="edge6" class="edge"><title>Plan&#45;&gt;User</title>
<path fill="none" stroke="#0342d7" d="M160.331,-748.84C160.358,-742.016 160.385,-735.007 160.413,-727.904"/>
<ellipse fill="none" stroke="#0342d7" cx="160.316" cy="-752.892" rx="4" ry="4"/>
<polygon fill="#0342d7" stroke="#0342d7" points="160.415,-727.44 164.954,-717.458 160.434,-722.44 160.454,-717.44 160.454,-717.44 160.454,-717.44 160.434,-722.44 155.954,-717.423 160.415,-727.44 160.415,-727.44"/>
</g>
<!-- ShareLink -->
<g id="node6" class="node"><title>ShareLink</title>
<path fill="none" stroke="black" d="M320.495,-253C320.495,-253 429.505,-253 429.505,-253 435.505,-253 441.505,-259 441.505,-265 441.505,-265 441.505,-369 441.505,-369 441.505,-375 435.505,-381 429.505,-381 429.505,-381 320.495,-381 320.495,-381 314.495,-381 308.495,-375 308.495,-369 308.495,-369 308.495,-265 308.495,-265 308.495,-259 314.495,-253 320.495,-253"/>
<text text-anchor="middle" x="375" y="-365.8" font-family="Times,serif" font-size="14.00">ShareLink</text>
<polyline fill="none" stroke="black" points="308.495,-359 441.505,-359 "/>
<text text-anchor="start" x="316.495" y="-343.8" font-family="Times,serif" font-size="14.00">id :integer</text>
<text text-anchor="start" x="316.495" y="-329.8" font-family="Times,serif" font-size="14.00">token :string</text>
<text text-anchor="start" x="316.495" y="-315.8" font-family="Times,serif" font-size="14.00">expires_at :datetime</text>
<text text-anchor="start" x="316.495" y="-301.8" font-family="Times,serif" font-size="14.00">asset_id :integer</text>
<text text-anchor="start" x="316.495" y="-287.8" font-family="Times,serif" font-size="14.00">sender_id :integer</text>
<text text-anchor="start" x="316.495" y="-273.8" font-family="Times,serif" font-size="14.00">created_at :datetime</text>
<text text-anchor="start" x="316.495" y="-259.8" font-family="Times,serif" font-size="14.00">updated_at :datetime</text>
</g>
<!-- ShareLink&#45;&gt;Email -->
<g id="edge8" class="edge"><title>ShareLink&#45;&gt;Email</title>
<path fill="none" stroke="#47e9d4" d="M398.402,-245.134C407.523,-217.514 417.854,-186.229 426.555,-159.881"/>
<ellipse fill="none" stroke="#47e9d4" cx="397.077" cy="-249.147" rx="4.00001" ry="4.00001"/>
<polygon fill="#47e9d4" stroke="#47e9d4" points="426.669,-159.538 434.078,-151.454 428.237,-154.791 429.805,-150.043 429.805,-150.043 429.805,-150.043 428.237,-154.791 425.531,-148.632 426.669,-159.538 426.669,-159.538"/>
</g>
<!-- User&#45;&gt;Asset -->
<g id="edge11" class="edge"><title>User&#45;&gt;Asset</title>
<path fill="none" stroke="#d2e17f" d="M93.6968,-426.916C90.3757,-416.578 87.4218,-406.209 85,-396 70.5844,-335.232 65.5807,-265.576 64.2982,-209.214"/>
<ellipse fill="none" stroke="#d2e17f" cx="95.0506" cy="-431.015" rx="4.00001" ry="4.00001"/>
<polygon fill="#d2e17f" stroke="#d2e17f" points="64.2982,-209.209 68.6054,-199.124 64.2022,-204.21 64.1062,-199.211 64.1062,-199.211 64.1062,-199.211 64.2022,-204.21 59.607,-199.297 64.2982,-209.209 64.2982,-209.209"/>
</g>
<!-- User&#45;&gt;Folder -->
<g id="edge10" class="edge"><title>User&#45;&gt;Folder</title>
<path fill="none" stroke="#644065" d="M161,-426.568C161,-419.325 161,-412.169 161,-405.194"/>
<ellipse fill="none" stroke="#644065" cx="161" cy="-430.844" rx="4" ry="4"/>
<polygon fill="#644065" stroke="#644065" points="161,-405.117 165.5,-395.117 161,-400.117 161,-395.117 161,-395.117 161,-395.117 161,-400.117 156.5,-395.117 161,-405.117 161,-405.117"/>
</g>
<!-- User&#45;&gt;ShareLink -->
<g id="edge12" class="edge"><title>User&#45;&gt;ShareLink</title>
<path fill="none" stroke="#cca18e" d="M268.594,-445.787C284.877,-426.232 301.142,-406.698 315.88,-388.999"/>
<ellipse fill="none" stroke="#cca18e" cx="265.859" cy="-449.071" rx="4.00002" ry="4.00002"/>
<polygon fill="#cca18e" stroke="#cca18e" points="316.14,-388.687 325.997,-383.882 319.339,-384.845 322.539,-381.002 322.539,-381.002 322.539,-381.002 319.339,-384.845 319.081,-378.123 316.14,-388.687 316.14,-388.687"/>
</g>
<!-- ActiveRecord::Base -->
<g id="node8" class="node"><title>ActiveRecord::Base</title>
<ellipse fill="none" stroke="black" cx="310" cy="-989" rx="80.9821" ry="18"/>
<text text-anchor="middle" x="310" y="-984.8" font-family="Times,serif" font-size="14.00">ActiveRecord::Base</text>
</g>
<!-- ActiveRecord::Base&#45;&gt;Asset -->
<g id="edge1" class="edge"><title>ActiveRecord::Base&#45;&gt;Asset</title>
<path fill="none" stroke="black" d="M275.025,-972.663C258.292,-965.714 237.842,-957.781 219,-952 144.57,-929.164 103.934,-968.154 48,-914 22.2882,-889.106 28,-871.788 28,-836 28,-836 28,-836 28,-316 28,-277.432 34.0031,-235.558 41.2372,-199.098"/>
</g>
<!-- ActiveRecord::Base&#45;&gt;Email -->
<g id="edge2" class="edge"><title>ActiveRecord::Base&#45;&gt;Email</title>
<path fill="none" stroke="black" d="M346.306,-972.883C393.513,-950.518 470,-903.816 470,-836 470,-836 470,-836 470,-316 470,-258.911 461.539,-193.82 454.665,-150.354"/>
</g>
<!-- ActiveRecord::Base&#45;&gt;Folder -->
<g id="edge5" class="edge"><title>ActiveRecord::Base&#45;&gt;Folder</title>
<path fill="none" stroke="black" d="M313.024,-970.635C324.507,-899.871 360.457,-627.828 272,-434 261.643,-411.305 244.96,-390.3 227.641,-372.578"/>
</g>
<!-- ActiveRecord::Base&#45;&gt;Plan -->
<g id="edge7" class="edge"><title>ActiveRecord::Base&#45;&gt;Plan</title>
<path fill="none" stroke="black" d="M293.374,-971.153C279.187,-956.776 257.705,-935.008 236.102,-913.117"/>
</g>
<!-- ActiveRecord::Base&#45;&gt;ShareLink -->
<g id="edge9" class="edge"><title>ActiveRecord::Base&#45;&gt;ShareLink</title>
<path fill="none" stroke="black" d="M323.381,-971.076C330.591,-960.934 338.841,-947.434 343,-934 403.094,-739.888 391.684,-495.106 381.754,-381.411"/>
</g>
<!-- ActiveRecord::Base&#45;&gt;User -->
<g id="edge13" class="edge"><title>ActiveRecord::Base&#45;&gt;User</title>
<path fill="none" stroke="black" d="M309.467,-970.82C307.766,-931.534 300.729,-832.624 272,-756 267.122,-742.989 261.246,-729.897 254.776,-717.034"/>
</g>
</g>
</svg>
